<?xml version="1.0" encoding="utf-8"?>
<!-- Generator: Adobe Illustrator 23.0.5, SVG Export Plug-In . SVG Version: 6.00 Build 0)  -->
<svg version="1.1" id="Layer_1" xmlns="http://www.w3.org/2000/svg" xmlns:xlink="http://www.w3.org/1999/xlink" x="0px" y="0px"
	 viewBox="0 0 500 500" style="enable-background:new 0 0 500 500;" xml:space="preserve">
<style type="text/css">
	.st0{fill-rule:evenodd;clip-rule:evenodd;fill:#F9D4E4;}
	.st1{fill-rule:evenodd;clip-rule:evenodd;fill:#070204;}
	.st2{fill-rule:evenodd;clip-rule:evenodd;fill:#FFFFFF;}
	.st3{fill-rule:evenodd;clip-rule:evenodd;fill:#EA1D25;}
	.st4{fill:#231F20;}
</style>
<g id="XMLID_1_">
	<path id="XMLID_3_" class="st0" d="M192.65,150.38c6.63,0,12.01,5.38,12.01,12.01c0,6.63-5.38,12.01-12.01,12.01
		c-6.63,0-12.01-5.38-12.01-12.01C180.65,155.76,186.02,150.38,192.65,150.38z"/>
	<path id="XMLID_4_" class="st0" d="M240.68,150.38c6.63,0,12.01,5.38,12.01,12.01c0,6.63-5.38,12.01-12.01,12.01
		c-6.63,0-12.01-5.38-12.01-12.01C228.67,155.76,234.05,150.38,240.68,150.38z"/>
	<path id="XMLID_5_" class="st0" d="M288.71,150.38c6.63,0,12.01,5.38,12.01,12.01c0,6.63-5.37,12.01-12.01,12.01
		c-6.63,0-12.01-5.38-12.01-12.01C276.7,155.76,282.08,150.38,288.71,150.38z"/>
	<path id="XMLID_6_" class="st0" d="M336.73,150.38c6.63,0,12.01,5.38,12.01,12.01c0,6.63-5.38,12.01-12.01,12.01
		c-6.63,0-12.01-5.38-12.01-12.01C324.73,155.76,330.1,150.38,336.73,150.38z"/>
	<path id="XMLID_7_" class="st0" d="M167.96,198.41c6.63,0,12.01-5.38,12.01-12.01c0-6.63-5.38-12.01-12.01-12.01
		c-6.63,0-12.01,5.38-12.01,12.01C155.95,193.03,161.33,198.41,167.96,198.41z"/>
	<path id="XMLID_8_" class="st0" d="M215.99,198.41c6.63,0,12.01-5.38,12.01-12.01c0-6.63-5.38-12.01-12.01-12.01
		c-6.63,0-12.01,5.38-12.01,12.01C203.98,193.03,209.36,198.41,215.99,198.41z"/>
	<path id="XMLID_9_" class="st0" d="M264.01,198.41c6.63,0,12.01-5.38,12.01-12.01c0-6.63-5.38-12.01-12.01-12.01
		c-6.63,0-12.01,5.38-12.01,12.01C252.01,193.03,257.38,198.41,264.01,198.41z"/>
	<path id="XMLID_10_" class="st0" d="M312.04,198.41c6.63,0,12.01-5.38,12.01-12.01c0-6.63-5.37-12.01-12.01-12.01
		c-6.63,0-12.01,5.38-12.01,12.01C300.03,193.03,305.41,198.41,312.04,198.41z"/>
	<path id="XMLID_11_" class="st0" d="M360.07,198.41c6.63,0,12.01-5.38,12.01-12.01c0-6.63-5.38-12.01-12.01-12.01
		c-6.63,0-12.01,5.38-12.01,12.01C348.06,193.03,353.44,198.41,360.07,198.41z"/>
	<path id="XMLID_12_" class="st0" d="M192.65,198.41c6.63,0,12.01,5.38,12.01,12.01c0,6.63-5.38,12.01-12.01,12.01
		c-6.63,0-12.01-5.37-12.01-12.01C180.65,203.78,186.02,198.41,192.65,198.41z"/>
	<path id="XMLID_13_" class="st0" d="M167.96,246.44c6.63,0,12.01-5.37,12.01-12.01c0-6.63-5.38-12.01-12.01-12.01
		c-6.63,0-12.01,5.38-12.01,12.01C155.95,241.06,161.33,246.44,167.96,246.44z"/>
	<path id="XMLID_14_" class="st0" d="M215.99,246.44c6.63,0,12.01-5.37,12.01-12.01c0-6.63-5.38-12.01-12.01-12.01
		c-6.63,0-12.01,5.38-12.01,12.01C203.98,241.06,209.36,246.44,215.99,246.44z"/>
	<path id="XMLID_15_" class="st0" d="M192.65,246.44c6.63,0,12.01,5.38,12.01,12.01c0,6.63-5.38,12.01-12.01,12.01
		c-6.63,0-12.01-5.38-12.01-12.01C180.65,251.81,186.02,246.44,192.65,246.44z"/>
	<path id="XMLID_16_" class="st0" d="M240.68,246.44c6.63,0,12.01,5.38,12.01,12.01c0,6.63-5.38,12.01-12.01,12.01
		c-6.63,0-12.01-5.38-12.01-12.01C228.67,251.81,234.05,246.44,240.68,246.44z"/>
	<path id="XMLID_17_" class="st0" d="M288.71,246.44c6.63,0,12.01,5.38,12.01,12.01c0,6.63-5.37,12.01-12.01,12.01
		c-6.63,0-12.01-5.38-12.01-12.01C276.7,251.81,282.08,246.44,288.71,246.44z"/>
	<path id="XMLID_18_" class="st0" d="M336.73,246.44c6.63,0,12.01,5.38,12.01,12.01c0,6.63-5.38,12.01-12.01,12.01
		c-6.63,0-12.01-5.38-12.01-12.01C324.73,251.81,330.1,246.44,336.73,246.44z"/>
	<path id="XMLID_19_" class="st0" d="M384.76,246.44c6.63,0,12.01,5.38,12.01,12.01c0,6.63-5.38,12.01-12.01,12.01
		c-6.63,0-12.01-5.38-12.01-12.01C372.75,251.81,378.13,246.44,384.76,246.44z"/>
	<path id="XMLID_20_" class="st0" d="M167.96,294.46c6.63,0,12.01-5.38,12.01-12.01s-5.38-12.01-12.01-12.01
		c-6.63,0-12.01,5.38-12.01,12.01S161.33,294.46,167.96,294.46z"/>
	<path id="XMLID_21_" class="st0" d="M215.99,294.46c6.63,0,12.01-5.38,12.01-12.01s-5.38-12.01-12.01-12.01
		c-6.63,0-12.01,5.38-12.01,12.01S209.36,294.46,215.99,294.46z"/>
	<path id="XMLID_22_" class="st0" d="M264.01,294.46c6.63,0,12.01-5.38,12.01-12.01s-5.38-12.01-12.01-12.01
		c-6.63,0-12.01,5.38-12.01,12.01S257.38,294.46,264.01,294.46z"/>
	<path id="XMLID_23_" class="st0" d="M312.04,294.46c6.63,0,12.01-5.38,12.01-12.01s-5.37-12.01-12.01-12.01
		c-6.63,0-12.01,5.38-12.01,12.01S305.41,294.46,312.04,294.46z"/>
	<path id="XMLID_24_" class="st0" d="M360.07,294.46c6.63,0,12.01-5.38,12.01-12.01s-5.38-12.01-12.01-12.01
		c-6.63,0-12.01,5.38-12.01,12.01S353.44,294.46,360.07,294.46z"/>
	<path id="XMLID_25_" class="st0" d="M192.65,294.46c6.63,0,12.01,5.38,12.01,12.01c0,6.63-5.38,12.01-12.01,12.01
		c-6.63,0-12.01-5.38-12.01-12.01C180.65,299.84,186.02,294.46,192.65,294.46z"/>
	<path id="XMLID_26_" class="st0" d="M240.68,294.46c6.63,0,12.01,5.38,12.01,12.01c0,6.63-5.38,12.01-12.01,12.01
		c-6.63,0-12.01-5.38-12.01-12.01C228.67,299.84,234.05,294.46,240.68,294.46z"/>
	<path id="XMLID_27_" class="st0" d="M288.71,294.46c6.63,0,12.01,5.38,12.01,12.01c0,6.63-5.37,12.01-12.01,12.01
		c-6.63,0-12.01-5.38-12.01-12.01C276.7,299.84,282.08,294.46,288.71,294.46z"/>
	<path id="XMLID_28_" class="st0" d="M336.73,294.46c6.63,0,12.01,5.38,12.01,12.01c0,6.63-5.38,12.01-12.01,12.01
		c-6.63,0-12.01-5.38-12.01-12.01C324.73,299.84,330.1,294.46,336.73,294.46z"/>
	<path id="XMLID_29_" class="st0" d="M167.96,342.49c6.63,0,12.01-5.38,12.01-12.01c0-6.63-5.38-12.01-12.01-12.01
		c-6.63,0-12.01,5.38-12.01,12.01C155.95,337.11,161.33,342.49,167.96,342.49z"/>
	<path id="XMLID_30_" class="st0" d="M215.99,342.49c6.63,0,12.01-5.38,12.01-12.01c0-6.63-5.38-12.01-12.01-12.01
		c-6.63,0-12.01,5.38-12.01,12.01C203.98,337.11,209.36,342.49,215.99,342.49z"/>
	<path id="XMLID_31_" class="st0" d="M264.01,342.49c6.63,0,12.01-5.38,12.01-12.01c0-6.63-5.38-12.01-12.01-12.01
		c-6.63,0-12.01,5.38-12.01,12.01C252.01,337.11,257.38,342.49,264.01,342.49z"/>
	<path id="XMLID_32_" class="st0" d="M312.04,342.49c6.63,0,12.01-5.38,12.01-12.01c0-6.63-5.37-12.01-12.01-12.01
		c-6.63,0-12.01,5.38-12.01,12.01C300.03,337.11,305.41,342.49,312.04,342.49z"/>
	<path id="XMLID_33_" class="st1" d="M424.84,262.82c1.14-0.51,7.37,0.81,7.66-3.23c-0.58-3.08-3.89-3.73-6.2-4.64
		c-6.27-1.3-12.55-1.05-19.69-1.34c-2.04-0.06-3.86,0.47-5.44,0.16c-1.41,0.08-2.27-1.59-2.32-2.55c-1.99-13.31-2.36-19.6-7.5-30.91
		c2.89-3.95,5-7.68,6.29-9.95l0.14-0.25l0.12-0.26c2.93-6.18,6.08-15.13,6.18-25.24c0.04-2.22-0.09-4.5-0.39-6.82
		c-0.82-6.62-6.17-12.67-12.72-14.36c-0.67-0.2-1.39-0.33-2.09-0.5c-0.7-11.59-2.61-23.26-6.96-33.15
		c-3.1-5.54-6.71-12.13-13.92-13.77c-6.91-1.25-13.82,0.51-19.91,1.83c-7.97,2.34-13.2,4.53-20.57,8.21
		c-3.42,2.05-6.26,3.84-9.16,5.55c-5.13-7.82-11.42-13.35-18.62-16.24l-0.16-0.06l-0.14-0.06c-9.26-3.31-19.72-0.91-27.98,6.45
		l-0.09,0.06c-4.25,3.83-8.01,8.32-11.29,13.26c-8.8-0.23-15.73-0.19-15.73-0.19c-7.26-0.42-14.52,0.98-21.55,0.68
		c-8.81,0.43-17.43,1.67-25.78,3.53c-2.55,0.16-4.7-0.29-6.2-1.08c-9.3-4.78-19.09-8.49-29.07-11.74
		c-11.18-2.69-25.86-8.16-36.07,0.31c-5.51,6.47-9.27,13.68-11.71,21.52c-1.93,6.01-2.87,12.51-3.32,19.29
		c-0.38,10.63,2.48,20.64,5.2,30.49c0.24,0.73,0.32,1.73-0.37,2.92c-9,15.65-15.27,32.97-15.88,51.95c-0.65,2.72,1.03,6.3-1.57,8.01
		c-2.7,0.21-5.17,0.53-7.88,0.75c-6.54,1.16-13.8,0.69-19.75,3.56c-2.1,0.85-2.88,2.81-2.9,4.91c0.11,0.87,0.7,1.75,1.59,2.11
		c5.03,0.81,9.47-0.61,14.4-0.81c3.32-0.29,6.65-0.65,9.97-0.86c2.34,0.03,5.31-0.79,6.64,1.45c1.89,6.41,2.66,13.2,4.66,19.49
		c0.56,1.41,0.25,2.98-2.03,3.86c-5.36,1.69-11.07,2.7-15.93,5.78c-1.92,0.63-2.67,2.92-2.51,4c0.17,1.08,2.64,2.89,5.69,2.39
		c3.03-0.49,4.86-0.98,6.74-1.59c5.03-0.59,10-3.7,14.01,0.42c2.04,3.96,4.47,7.56,6.76,11.38c0.4,1.01,1.2,1.84,1.89,2.71
		c0.94,1.03,1.01,3.43-1.11,4.54c-4.49,2.87-9.18,5.34-13.79,8.12c-2.01,1.16-7.1,4.75-8.71,8c-0.02,1.48-0.4,3.55,1.05,4.57
		c2.02,0.84,4.18,0.41,5.68-0.67c7.7-4.42,14.9-9.95,22.99-13.23c1.3-0.78,3.46-1.01,4.95,0.37c3.55,2.81,19.9,16.17,36.03,22.78
		c17.29,7.06,28.1,9.49,46.25,11.52c5.91,0.66,12.64,1.27,20.61,2c38.79,3.55,67.27-1.94,67.27-1.94
		c16.67-1.89,32.1-7.17,39.81-10.25c11.02-4.43,17.92-9.66,27.6-17.3c3.79-3.37,7.42-6.96,10.59-10.5c0.9-1.01,2.91-1.8,4.4-1.27
		c2.81,0.67,5.26,2.35,7.99,3.21c5.99,2.18,11.4,5.94,17.77,6.87c2.06,0.12,3.08-1.56,3.11-2.79c0.5-1.73-0.32-3.34-1.66-4.57
		c-6.71-4.78-14.47-7.57-21.62-11.48c-2.08-1.07-2.14-2.56-1.66-3.33c2.05-4.2,3.77-8.6,5.67-12.87c1.12-2.06,1.12-5.39,4.12-5.99
		c5.89-0.03,10.72,0.77,16.36,1.59c2.84-0.1,6.76,0.82,9.37-0.87c0.98-0.74,1.01-3.17-0.1-3.81c-3.9-2.27-8.07-3.67-12.59-4.48
		c-2.99-0.68-5.56-0.69-7.84-1.26c-1.04-0.12-0.96-0.03-2.27-0.28c-1.31-0.26-2.61-1.48-2.41-2.43c0.19-5.28,1.47-10.2,1.68-15.62
		c0.38-1.82-0.71-4.3,1.05-5.64C407.62,260.99,416.6,263.21,424.84,262.82z"/>
	<path id="XMLID_34_" class="st2" d="M326.04,147.58l0.21,0.7l0.27,0.84l0.15,0.36l0.04,0.13c0.58,1.65,0.75,3.32,0.55,4.91
		c7.88,0.29,15.57,3.61,21.05,9.52c0.81,0.87,1.55,1.78,2.25,2.73c1.08-0.97,2.35-1.74,3.83-2.16c7.53-2.53,15.6-3.63,23.36-3.29
		c-0.44-4.9-1.27-7.6-1.27-7.6l-1.21-4.89c-1.27-6.69-2.55-13.35-6.74-18.8c-2.07-3.95-5.24-2.69-7.54-2.34
		c-4-0.33-16.52,4.93-21.35,6.31c-3.92,1.29-10.86,4.91-15.89,7.75C324.57,143.64,325.33,145.57,326.04,147.58z"/>
	<path id="XMLID_35_" class="st2" d="M385.77,264.54c-0.15-0.01-0.31,0-0.47-0.03c-4.29,0.71-8.74,1.12-13.05,1.81
		c-2.21-0.15-3.67-1.16-4.4-3.02c-0.36-1.59,0.06-2.82,1.55-3.91c3.21-1.64,5.78-1.64,8.64-2.46c2.82-0.72,6.03-0.54,8.6-1.61
		c1-0.5,1.27-1.46,1.28-2.45c-0.67-6.9-1.93-13.43-3.92-19.87c-0.41-1.16-0.75-2.29-1.06-3.42c-6.09,5.25-13.86,9.05-23.33,7.68
		c-11.84-1.77-20.3-11.81-24.1-20.11c-0.64-1.15-1.06-2.39-1.21-3.65c-2.64,0.7-5.36,1.09-8.11,1.04
		c-9.96,0.02-19.24-5.1-24.84-13.52c-0.71,0.59-1.52,1.13-2.48,1.58l-0.43,0.2l-0.45,0.14c-18.32,6.16-31.92,5.22-41.59-2.85
		l-0.19-0.19l-0.19-0.18c-15.32-14.64-7.61-37.87-3.91-49.01l0.05-0.17l0.04-0.15c0.37-0.94,0.76-1.84,1.15-2.76
		c-17.77,0.09-38.83,0.97-45.43,1.96c-6.76,0.4-13.83,4.75-20.3,0.99c-11.24-6.57-23-11.62-35.64-14.86
		c-6.14-1.3-15.1-3.52-20.07,1.6c-8,9.63-10.37,21.89-10.66,34.83c0.52,4.92,1.34,9.71,3.56,13.93c0.38,0.67,1.15,0.6,1.64,0.44
		c1.54-0.92,2.99-2.12,4.98-1.7c1.42,0.2,2.57,1.03,3.05,2.63c0.35,1.47-0.03,3.07-0.67,4.41c-4.9,7.2-10.39,14.39-13.45,22.49
		c-6.31,13.7-9.83,28.66-10.02,45.04c0.47,0.99,1.43,1.97,2.43,2.11c3.94,0.17,7.39,0.93,11.43,1.5c2.43,1.12,6.88,1.06,6.7,4.89
		c-1.04,4.28-6.19,2.61-9.26,2.95c-2.4-0.04-4.99-0.58-7.5-0.39c-1.42,0.08-2.34,0.96-2.27,2.55c0,0.59-0.02,1.21-0.02,1.79
		c0.55,6.03,2.32,11.7,4.72,16.89c0.97,0.87,2.58,0.78,3.56,0.42c4.03,0.03,6.98-1.5,10.17-0.22c1.99,0.52,2.34,2.59,1.97,4.08
		c-0.13,0.62-0.75,0.97-1.24,1.35c-2.75,0.99-5.58,1.96-8.52,2.74c-1.24,0.56-2.15,1.79-1.46,3.13c2.09,4.56,5.23,8.68,8.25,12.68
		c1.48,1.87,3.93,2.12,6.04,1.69c3.7-1.56,6.65-3.25,10.84-3.09c2.41,0.13,3.42,2.65,3.16,4.49c-2.01,3.42-6.21,3.61-8.84,6.28
		c-0.12,0.37-0.24,0.99,0.13,1.25c11.71,8.86,24.59,17.05,38.32,21.16c10.55,3.16,22.53,7.24,41.72,8.75
		c38.37,4.35,74.93,0.39,88.83-3.08c13.69-2.29,26.3-6.8,38.18-13.54c6.76-4.01,13.95-8.7,19.15-15.37
		c0.85-1.05,0.59-2.04-0.22-2.62c-2.25-1.31-5.07-2.01-5.97-4.75c-0.34-0.99-0.3-2.94,1.03-3.66c3.02-2.14,6.41-0.12,9.67,0.29
		c1.31,0.32,3.35,0.46,4.45-2.07c2.71-4.63,5.12-9.33,6.67-14.38c0.84-2.04-0.17-2.99-1.08-3.3c-3.08-0.89-8.3-1.58-8.19-5.03
		c0.9-3.56,4.24-3.61,7.79-3.35c1.58,0.04,4.05,0.8,5.06-0.93c0.67-3.57,1.2-7.24,1.6-10.81c0.43-2.11,0.3-4.37,0.24-6.61
		C388.09,264.69,386.96,264.66,385.77,264.54z"/>
	<path id="XMLID_36_" class="st1" d="M171.57,266.23c3.56-1.47,7.36-0.02,10.08,2.07c3.82,4.05,3.94,10.08,3.34,15.5
		c-0.62,3.69-2.45,7.74-6.28,9.36c-3.92,1.37-8.86,0.86-11.68-2.21c-3.95-4.68-3.84-11.94-2.1-17.72
		C165.9,270.39,168.47,267.19,171.57,266.23z"/>
	<path id="XMLID_37_" class="st1" d="M239.78,294.13c6.2-4.1,15.84-3.66,22.16,0.14c3.03,1.44,5.25,4.67,5.65,8.1
		c0.58,4.54-1.32,8.58-4.9,11.06c-6.84,4.61-16.47,3.46-23.41,0.07c-4.03-2.03-5.7-6.25-5.17-10.85
		C234.58,299.3,236.41,295.77,239.78,294.13z"/>
	<path id="XMLID_38_" class="st2" d="M244.8,299.22c4.35-1.68,10.5-1.95,13.74,1.84c1.3,0.93,1.23,2.41,1.53,3.76
		c-0.03,1.72-1.47,3.14-2.91,3.81c-4.09,2.04-10.24,1.95-14.07-0.84c-1.28-1.18-2.21-2.72-1.55-4.49
		C241.96,301.69,243.35,300.01,244.8,299.22z"/>
	<path id="XMLID_39_" class="st1" d="M318.59,266.84c2.85-1.09,6.77-0.73,9.36,0.61c4.43,3.59,5.56,9.01,4.91,14.55
		c-0.72,4.79-2.67,10.21-7.85,11.82c-4.05,1.23-8.38-0.6-10.84-4.09c-2.7-3.8-2.57-8.83-2.09-13.52
		C312.82,272.53,315.04,268.48,318.59,266.84z"/>
	<path id="XMLID_40_" class="st3" d="M295.39,195.18c-10.45,3.51-24.45,6.38-33.7-1.37c-10.96-10.47-5.88-28.2-1.79-40.54
		c3.53-9.42,9.29-18.51,16.96-25.47c5.39-4.8,12.83-7.35,19.81-4.83c11.32,4.55,17.94,16.78,21.64,27.32c0.18,0.67,0.43,1.32,0.7,2
		c0.3,0.91,0.26,2.07-0.68,2.35c-1.8,0.61-3.62,1.25-5.31,2.06c-0.75,0.51-1.92,0.47-2.32-0.3c-0.61-0.59-1.21-1.25-1.96-1.63
		c-5.44-3.96-13.08-4.24-18.94-0.81c-6.72,4.04-9.61,11.11-8.66,18.52c0.87,5.42,4.8,10.7,9.79,13.04c0.91,0.47,1.9,0.82,2.94,1.06
		c0.99,0.2,1.94,0.67,2.1,1.68c0.29,1.59,0.52,3.2,0.89,4.69C297.16,193.95,296.5,194.69,295.39,195.18z"/>
	<path id="XMLID_41_" class="st3" d="M296.75,176.5c1.2-4.35,3.24-8.44,6.32-11.96c0.78-1.05,0.61-2.28,0.01-2.68
		c-2.41-1.4-5.66-1.69-8.17-0.41c-3.37,1.64-5.42,5.17-5.01,8.99c0.36,2.83,2.28,5.67,4.94,6.98
		C295.53,177.83,296.42,177.46,296.75,176.5z"/>
	<path id="XMLID_42_" class="st3" d="M318.49,164.06c8.32-3.11,18-0.8,23.87,5.59c5.9,6.17,7.39,15.81,4.03,23.49
		c-3.15,7.93-11.65,13.41-20.12,13.2c-7.88,0.09-15.27-4.53-19.18-11.63c-4.01-7.11-2.92-17.68,2.39-23.82
		C311.75,167.74,315.26,165.48,318.49,164.06z"/>
	<path id="XMLID_43_" class="st3" d="M348.04,209.13c4.13,2.9,10.06,3.91,14.79,1.74c5.34-2.09,9.29-7.54,9.68-13.31
		c0.23-5.53-2-10.63-6.58-13.92c-2.2-1.47-4.52-2.34-7.19-2.67c-1.16-0.17-1.98-0.9-2.09-1.9c-0.27-1.54-0.71-3.03-1.14-4.49
		c-0.08-1,0.25-1.84,1.26-2.15c9.87-3.35,21.65-4.11,32.06-1.08c3.31,0.79,6.31,4.19,6.71,7.54c1.26,9.51-1.17,19.28-5.04,27.44
		c-5.78,10.24-15.6,24.88-29.69,22.84c-8.05-1.2-14.92-8.58-18.08-15.88c-0.62-0.77-0.36-2.21,0.38-2.78
		c0.7-0.5,1.55-1.15,2.17-1.63C346.04,208.46,347.11,208.37,348.04,209.13z"/>
	<path id="XMLID_44_" class="st3" d="M358.13,189.92c1.39,0.18,2.71,0.97,3.8,2.09c1.42,1.65,2.13,3.76,1.45,6.07
		c-0.53,1.95-2.55,4.25-4.55,4.71c-1.89,0.64-3.94,0.06-5.41-1.11c-0.54-0.48-0.57-1.66-0.05-2.41c1.31-2.43,2.27-5.06,2.94-7.81
		C356.37,190.64,357.36,189.78,358.13,189.92z"/>
	<path id="XMLID_45_" class="st1" d="M334.92,320.38c14.87,4.97,19.75,10.65,24.41,18.81c0,0,3.37,7.77,3.87,11.25
		c0.5,3.49,0.32,4.02,0.15,6.06c-0.95,11.37-7.48,21.7-16.64,26.33c-6.25,3.15-16.42,5.16-29.88-2.39
		c-14.52,5.2-24.22,1.5-29.85-2.65c-6.97-5.14-11.4-13.99-12.03-23.49c-0.13-0.3-0.16-0.51-0.08-2.09
		C274.85,352.21,274.78,307.64,334.92,320.38z"/>
	<path id="XMLID_46_" class="st4" d="M334.92,320.38l-0.06,0.17c14.85,4.97,19.65,10.59,24.31,18.73l0.16-0.09l-0.17,0.07
		c0,0,0.84,1.94,1.74,4.31c0.9,2.37,1.87,5.19,2.11,6.89c0.24,1.7,0.32,2.69,0.32,3.5c0,0.84-0.09,1.48-0.18,2.52
		c-0.94,11.32-7.45,21.59-16.54,26.19c-3.05,1.54-7.04,2.8-11.89,2.8c-5.03,0-10.99-1.36-17.82-5.18l-0.07-0.04l-0.08,0.03
		c-5.07,1.82-9.55,2.54-13.46,2.54c-7.25,0-12.59-2.49-16.22-5.17c-6.92-5.1-11.33-13.91-11.96-23.36l0-0.03l-0.01-0.03
		c-0.07-0.17-0.11-0.27-0.11-0.75c0-0.28,0.01-0.68,0.05-1.26l0,0v-0.01c0-0.08,0.01-8.58,5.02-17.04
		c5.01-8.46,14.98-16.9,35.01-16.9c5.74,0,12.3,0.69,19.81,2.29L334.92,320.38l-0.06,0.17L334.92,320.38l0.04-0.18
		c-7.53-1.59-14.12-2.29-19.89-2.29c-20.13-0.01-30.27,8.52-35.33,17.08c-5.06,8.55-5.07,17.11-5.07,17.23h0.18l-0.18-0.01
		c-0.03,0.59-0.05,0.99-0.05,1.28c0,0.48,0.05,0.69,0.14,0.89l0.17-0.07l-0.18,0.01c0.63,9.55,5.09,18.45,12.11,23.62
		c3.68,2.72,9.1,5.24,16.44,5.24c3.96,0,8.48-0.73,13.59-2.56l-0.06-0.17l-0.09,0.16c6.87,3.85,12.9,5.23,18,5.23
		c4.92,0,8.96-1.28,12.06-2.84c9.23-4.67,15.78-15.05,16.74-26.48c0.09-1.04,0.18-1.69,0.18-2.55c0-0.83-0.08-1.84-0.33-3.55
		c-0.51-3.53-3.88-11.29-3.88-11.3l0-0.01l0-0.01c-4.67-8.18-9.61-13.92-24.51-18.89l-0.01,0l-0.01,0L334.92,320.38z"/>
	<path id="XMLID_47_" class="st2" d="M353.64,355.69c-0.67,8.06-5.12,15.31-11.33,18.44c-6.21,3.14-13.93,2.07-22.31-3.09
		c-1.41-0.87-3.19-1.03-4.74-0.4c-9.12,3.68-16.91,3.44-22.51-0.68c-5.59-4.14-8.77-12.01-8.09-20.08
		c1.19-14.03,17.62-24.18,36.67-22.61C340.33,328.9,354.82,341.66,353.64,355.69z"/>
	<path id="XMLID_48_" class="st1" d="M229.66,353.84c-0.5,9.35-4.7,18.16-11.48,23.41c-5.54,4.28-15.14,8.2-29.78,3.34
		c-13.28,7.85-23.5,6.08-29.81,3.07c-9.25-4.4-16.03-14.58-17.24-25.94c-0.29-2.58-0.18-5.15,0.23-7.66c0,0,3.16-22.06,29.65-30.08
		c0,0,17.28-6.67,37.61,2.04C229.15,330.73,230.03,349.78,229.66,353.84z"/>
	<path id="XMLID_49_" class="st2" d="M212.22,369.53c-5.51,4.27-13.29,4.69-22.5,1.22c-1.56-0.6-3.32-0.4-4.72,0.51
		c-8.28,5.35-15.95,6.6-22.23,3.61c-6.29-2.98-10.89-10.12-11.77-18.2c-1.5-13.99,12.71-27.07,31.69-29.16
		c18.98-1.99,35.64,7.77,37.15,21.75C220.71,357.32,217.71,365.29,212.22,369.53z"/>
	<path id="XMLID_50_" class="st4" d="M212.22,369.53l-0.11-0.14c-3.02,2.34-6.71,3.51-10.97,3.51c-3.44,0-7.25-0.77-11.36-2.32
		c-0.62-0.24-1.27-0.35-1.92-0.35c-1.04,0-2.07,0.3-2.96,0.88c-5.32,3.44-10.38,5.17-14.96,5.17c-2.52,0-4.89-0.52-7.1-1.57
		c-6.22-2.95-10.8-10.03-11.66-18.05c-0.07-0.67-0.11-1.35-0.11-2.01c-0.01-13.07,13.64-24.97,31.63-26.95
		c1.65-0.17,3.28-0.26,4.89-0.26c16.8,0,30.71,9.22,32.06,21.85c0.1,0.92,0.15,1.83,0.15,2.74c0,7.02-2.89,13.65-7.69,17.36
		L212.22,369.53l0.11,0.14c4.91-3.8,7.83-10.52,7.83-17.64c0-0.92-0.05-1.85-0.15-2.78c-1.4-12.9-15.5-22.17-32.42-22.17
		c-1.62,0-3.26,0.08-4.93,0.26c-18.11,1.99-31.95,13.97-31.96,27.31c0,0.68,0.04,1.37,0.11,2.05c0.88,8.13,5.51,15.32,11.87,18.34
		c2.25,1.07,4.68,1.6,7.25,1.6c4.67,0,9.8-1.76,15.16-5.23c0.83-0.54,1.79-0.82,2.76-0.82c0.61,0,1.21,0.11,1.79,0.33
		c4.14,1.56,7.99,2.34,11.49,2.34c4.32,0,8.11-1.2,11.19-3.59L212.22,369.53z"/>
</g>
</svg>
